# xmcd CD database file
#
# Track frame offsets:
#	150
#	21897
#	39630
#	57196
#	78909
#	107409
#	135300
#	166869
#	190569
#	214644
#	244363
#	260551
#	281645
#	302964
#	329730
#
# Disc length: 4731 seconds
#
# Revision: 0
# Processed by: cddbd v1.5.2PL0 Copyright (c) Steve Scherf et al.
# Submitted via: CDex 1.51
#
DISCID=cf12790f
DTITLE=Harry Sweets Edison - The Inventive Mr Edison and Jawbreakers
DYEAR=1900
DGENRE=Jazz
TTITLE0=September In The Rain
TTITLE1='s Wonderful
TTITLE2=Just You, Just Me
TTITLE3=Indiana
TTITLE4=Pennies From Heaven
TTITLE5=These Foolish Things
TTITLE6=Tea For Two
TTITLE7=OO-EE!
TTITLE8=Broadway
TTITLE9=Jawbreakers
TTITLE10=Four
TTITLE11=Moolah
TTITLE12=A Gal In Galico
TTITLE13=I've Got A Crush On You
TTITLE14=Close Your Eyes
EXTD=
EXTT0=
EXTT1=
EXTT2=
EXTT3=
EXTT4=
EXTT5=
EXTT6=
EXTT7=
EXTT8=
EXTT9=
EXTT10=
EXTT11=
EXTT12=
EXTT13=
EXTT14=
PLAYORDER=
